<svg xmlns="http://www.w3.org/2000/svg" width="281.199" height="281.202" viewBox="0 0 281.199 281.202">
  <defs>
    <style>
      .cls-1 {
        fill: #802e2a;
      }

      .cls-2 {
        fill: #ef761b;
      }
    </style>
  </defs>
  <g id="Group_31" data-name="Group 31" transform="translate(-70.005 -373.683)">
    <path id="Path_11" data-name="Path 11" class="cls-1" d="M74.383,463.714a4.4,4.4,0,0,0,2.988-1.188l16.41-15.378h0a4.394,4.394,0,1,0-6-6.371l-16.41,15.378a4.394,4.394,0,0,0,3.008,7.558Z" transform="translate(0.012 33.412)"/>
    <path id="Path_12" data-name="Path 12" class="cls-1" d="M92.541,466.414a4.4,4.4,0,0,0,2.988-1.188l25.089-23.44a4.394,4.394,0,1,0-6-6.413l-25.066,23.44a4.393,4.393,0,0,0,3.011,7.6Z" transform="translate(9.247 30.757)"/>
    <path id="Path_13" data-name="Path 13" class="cls-1" d="M302.118,489.283a4.393,4.393,0,1,0,6.457-5.953L231.44,399.849a4.4,4.4,0,0,0-5.954-.462l-70.717,55.6-33.392-31.218a4.394,4.394,0,0,0-6,0l-18.522,17.29a4.395,4.395,0,1,0,6,6.416L118.347,433l57.381,53.583V474.565L161.27,461.056l66.454-52.284Z" transform="translate(12.907 12.607)"/>
    <path id="Path_14" data-name="Path 14" class="cls-2" d="M251.127,405.184a15.732,15.732,0,1,0-4.608,11.1,15.714,15.714,0,0,0,4.608-11.1Zm-15.708,6.92a6.92,6.92,0,1,1,4.895-2.027,6.919,6.919,0,0,1-4.895,2.027Z" transform="translate(76.241 8.043)"/>
    <path id="Path_15" data-name="Path 15" class="cls-2" d="M203.919,401.367a4.393,4.393,0,0,0,4.393,4.393H217.1a4.394,4.394,0,0,0,0-8.788h-8.787A4.394,4.394,0,0,0,203.919,401.367Z" transform="translate(68.198 11.86)"/>
    <path id="Path_16" data-name="Path 16" class="cls-2" d="M257.857,396.972H249.07a4.394,4.394,0,1,0,0,8.788h8.787a4.394,4.394,0,0,0,0-8.788Z" transform="translate(88.953 11.86)"/>
    <path id="Path_17" data-name="Path 17" class="cls-2" d="M236,386.863v-8.787a4.394,4.394,0,0,0-8.789,0v8.787a4.394,4.394,0,1,0,8.789,0Z" transform="translate(80.058 0)"/>
    <path id="Path_18" data-name="Path 18" class="cls-2" d="M236,427.62v-8.787a4.394,4.394,0,0,0-8.789,0v8.787a4.394,4.394,0,0,0,8.789,0Z" transform="translate(80.058 20.756)"/>
    <path id="Path_19" data-name="Path 19" class="cls-2" d="M224.46,388.005l-6.218-6.218a4.4,4.4,0,0,0-6.218,6.218l6.218,6.218a4.4,4.4,0,1,0,6.218-6.218Z" transform="translate(71.67 3.472)"/>
    <path id="Path_20" data-name="Path 20" class="cls-2" d="M247.061,423.047a4.4,4.4,0,0,0,6.218-6.218l-6.218-6.218a4.4,4.4,0,1,0-6.218,6.218Z" transform="translate(86.346 18.15)"/>
    <path id="Path_21" data-name="Path 21" class="cls-2" d="M253.281,381.787a4.4,4.4,0,0,0-6.218,0l-6.217,6.218a4.4,4.4,0,0,0,6.217,6.218l6.218-6.218a4.394,4.394,0,0,0,0-6.218Z" transform="translate(86.348 3.472)"/>
    <path id="Path_22" data-name="Path 22" class="cls-2" d="M212.023,416.825a4.4,4.4,0,1,0,6.217,6.218l6.218-6.218a4.4,4.4,0,0,0-6.218-6.218Z" transform="translate(71.669 18.149)"/>
    <path id="Path_23" data-name="Path 23" class="cls-1" d="M101.608,403.108a4.394,4.394,0,0,0,6.218,0l1.825-1.825h0a9.844,9.844,0,0,1,13.929,0,4.4,4.4,0,1,0,6.218-6.217,18.674,18.674,0,0,0-25.44-.922,18.652,18.652,0,0,0-22.87,2.745,4.4,4.4,0,0,0,6.217,6.218,9.863,9.863,0,0,1,13.906,0Z" transform="translate(5.191 8.099)"/>
    <path id="Path_24" data-name="Path 24" class="cls-1" d="M83.184,604.717h8.787a4.39,4.39,0,0,0,4.393-4.393,30.757,30.757,0,0,1,61.513,0,4.393,4.393,0,0,0,4.393,4.393h43.938a4.393,4.393,0,0,0,4.395-4.393,30.757,30.757,0,0,1,61.513,0,4.39,4.39,0,0,0,4.393,4.393h17.575a4.393,4.393,0,0,0,4.393-4.393V547.6a63.708,63.708,0,0,0-43.938-60.546V450.935a4.395,4.395,0,0,0-3.6-4.394l-48.331-8.788a4.391,4.391,0,0,0-5.184,4.395v30.359a4.392,4.392,0,0,0,4.987,4.395l43.345-5.931v13.906a63.68,63.68,0,0,0-10.984-.989H78.792A8.786,8.786,0,0,0,70,492.675v98.863a13.179,13.179,0,0,0,13.18,13.182ZM206.209,467.481V447.423l39.544,7.183V462.1Zm21.97,25.2h6.589a54.921,54.921,0,0,1,54.747,50.529H228.177ZM78.789,551.992h24.166a4.394,4.394,0,0,0,0-8.788H78.789V492.678h140.6V543.2H124.927a4.394,4.394,0,0,0,0,8.788H289.691V595.93h-9.05a39.545,39.545,0,0,0-78.563,0H166.424a39.545,39.545,0,0,0-78.584,0H83.182a4.395,4.395,0,0,1-4.393-4.393Z" transform="translate(0 32.592)"/>
    <path id="Path_25" data-name="Path 25" class="cls-1" d="M190.953,574.826a21.967,21.967,0,1,0-15.535-6.434A21.977,21.977,0,0,0,190.953,574.826Zm0-35.151a13.178,13.178,0,1,1-9.321,3.861A13.181,13.181,0,0,1,190.953,539.675Z" transform="translate(50.407 80.059)"/>
    <path id="Path_26" data-name="Path 26" class="cls-1" d="M137.231,552.857a21.967,21.967,0,1,0-6.434,15.535A21.976,21.976,0,0,0,137.231,552.857Zm-21.969,13.182a13.179,13.179,0,1,1,9.321-3.861A13.186,13.186,0,0,1,115.262,566.039Z" transform="translate(11.86 80.059)"/>
    <path id="Path_27" data-name="Path 27" class="cls-1" d="M116.8,508.5V484.335a4.393,4.393,0,0,0-4.395-4.394H86.041a4.393,4.393,0,0,0-4.393,4.394V508.5a4.393,4.393,0,0,0,4.393,4.393H112.4A4.4,4.4,0,0,0,116.8,508.5Zm-8.788-4.395H90.435V488.729H108.01Z" transform="translate(5.929 54.114)"/>
    <path id="Path_28" data-name="Path 28" class="cls-1" d="M115.153,512.9h26.362a4.4,4.4,0,0,0,4.395-4.393V484.335a4.393,4.393,0,0,0-4.395-4.394H115.153a4.394,4.394,0,0,0-4.393,4.394V508.5a4.4,4.4,0,0,0,4.393,4.393Zm4.393-24.166h17.575v15.378H119.547Z" transform="translate(20.755 54.114)"/>
    <path id="Path_29" data-name="Path 29" class="cls-1" d="M144.265,512.9h26.362a4.4,4.4,0,0,0,4.395-4.393V484.335a4.393,4.393,0,0,0-4.395-4.394H144.265a4.394,4.394,0,0,0-4.393,4.394V508.5a4.4,4.4,0,0,0,4.393,4.393Zm4.393-24.166h17.575v15.378H148.659Z" transform="translate(35.581 54.114)"/>
  </g>
</svg>
